<?xml version="1.0" encoding="utf-8"?><!DOCTYPE svg PUBLIC "-//W3C//DTD SVG 1.0//EN" "http://www.w3.org/TR/2001/REC-SVG-20010904/DTD/svg10.dtd"><svg version="1.0" xmlns="http://www.w3.org/2000/svg" xmlns:xlink="http://www.w3.org/1999/xlink" x="0px" y="0px" viewBox="0 0 100 34.47" enable-background="new 0 0 100 34.47" xml:space="preserve"><path d="M99.925,5.721c-0.716-2.606-7.372-2.83-10.05-1.938c-9.739,3.239-19.479,6.479-29.22,9.719L26.845,0l-3.568,3.803
	l14.468,17.376c-9.326,3.224-26.407,9.177-29.507,10.207c-2.669,0.889,17.247,3.715,21.813,2.956c0,0,35.082-11.443,50.593-16.604
	c3.987-1.326,7.976-2.652,11.963-3.979C95.275,12.872,100.702,8.549,99.925,5.721z"></path><polygon points="2.71,19.027 0,21.531 7.187,29.915 17.602,26.247 "></polygon></svg>