<?xml version="1.0" encoding="utf-8"?><!DOCTYPE svg PUBLIC "-//W3C//DTD SVG 1.0//EN" "http://www.w3.org/TR/2001/REC-SVG-20010904/DTD/svg10.dtd"><svg version="1.0" xmlns="http://www.w3.org/2000/svg" xmlns:xlink="http://www.w3.org/1999/xlink" x="0px" y="0px" viewBox="0 0 100 56.817" enable-background="new 0 0 100 56.817" xml:space="preserve"><path d="M99.861,54.004c1.105-2.808-4.693-7.46-7.682-8.455c-10.871-3.622-21.74-7.243-32.611-10.865L38.391,0l-5.732,1.011
	l1.302,25.205C23.471,22.856,4.226,16.747,0.766,15.595c-2.979-0.993,12.925,14.858,17.513,17.235c0,0,39.002,13.246,56.314,19.014
	c4.45,1.482,8.9,2.966,13.351,4.448C90.923,57.284,98.663,57.052,99.861,54.004z"></path><polygon points="4.096,0.855 0,1.278 0.812,13.578 12.572,17.269 "></polygon><circle cx="49.924" cy="47.482" r="1.906"></circle><circle cx="44.523" cy="45.576" r="1.906"></circle></svg>